<?xml version="1.0" standalone="no"?>
<!DOCTYPE svg PUBLIC "-//W3C//DTD SVG 20010904//EN"
 "http://www.w3.org/TR/2001/REC-SVG-20010904/DTD/svg10.dtd">
<svg version="1.0" xmlns="http://www.w3.org/2000/svg"
 width="1024.000000pt" height="1024.000000pt" viewBox="0 0 1024.000000 1024.000000"
 preserveAspectRatio="xMidYMid meet">
<metadata>
Created by potrace 1.14, written by Peter Selinger 2001-2017
</metadata>
<g transform="translate(0.000000,1024.000000) scale(0.100000,-0.100000)"
fill="#000000" stroke="none">
<path d="M4400 6600 l0 -210 283 0 284 0 584 -1550 584 -1550 270 2 270 3 526
1545 525 1545 282 3 282 2 0 210 0 210 -695 0 -695 0 0 -210 0 -210 191 0
c178 0 191 -1 184 -17 -69 -176 -628 -1801 -726 -2110 -73 -233 -136 -423
-139 -423 -3 0 -75 206 -160 458 -85 251 -292 824 -461 1272 l-306 815 188 3
189 2 0 210 0 210 -730 0 -730 0 0 -210z"/>
<path d="M3225 5925 c-139 -23 -259 -60 -381 -119 -363 -178 -590 -497 -671
-946 -25 -143 -23 -446 6 -604 53 -293 164 -513 353 -697 229 -222 537 -340
928 -356 283 -11 524 35 747 142 95 47 270 159 337 217 l38 33 -103 135 c-56
74 -104 137 -106 140 -2 2 -10 0 -17 -5 -73 -56 -206 -136 -277 -167 -216 -95
-514 -132 -750 -92 -349 59 -596 278 -678 600 -21 85 -43 235 -35 244 3 3 448
7 989 10 541 3 987 9 992 13 4 5 10 86 11 182 6 269 -31 467 -122 661 -155
327 -401 523 -756 600 -106 23 -388 28 -505 9z m420 -371 c176 -42 333 -171
418 -345 53 -109 75 -187 84 -299 l6 -80 -764 -2 c-420 -2 -766 -2 -768 -1 -8
5 34 165 62 232 58 142 172 282 302 371 106 73 267 131 400 144 63 6 195 -4
260 -20z"/>
</g>
</svg>
